<?xml version="1.0" encoding="UTF-8" standalone="no" ?>
<!DOCTYPE svg PUBLIC "-//W3C//DTD SVG 1.1//EN" "http://www.w3.org/Graphics/SVG/1.1/DTD/svg11.dtd">
<svg xmlns="http://www.w3.org/2000/svg" xmlns:xlink="http://www.w3.org/1999/xlink" version="1.1" width="104" height="74" viewBox="177 156 104 74" xml:space="preserve">
<desc>Created with Fabric.js 4.6.0</desc>
<defs>
</defs>
<g transform="matrix(1.25 0 0 1 224.9 175.43)" id="4icIyRzIhJWmN5iAq8IO1"  >
<path style="stroke: rgb(0,0,0); stroke-width: 14; stroke-dasharray: none; stroke-linecap: butt; stroke-dashoffset: 0; stroke-linejoin: miter; stroke-miterlimit: 4; fill: rgb(255,255,255); fill-rule: nonzero; opacity: 1;" vector-effect="non-scaling-stroke"  transform=" translate(0, 0)" d="M 27.63471 0 L -27.63471 0" stroke-linecap="round" />
</g>
<g transform="matrix(-0.76 0 0 0.83 224.9 192.54)" id="0TD2Xt2QPa6r8SopXlCbb"  >
<path style="stroke: rgb(64,123,232); stroke-width: 14; stroke-dasharray: none; stroke-linecap: butt; stroke-dashoffset: 0; stroke-linejoin: miter; stroke-miterlimit: 4; fill: rgb(255,255,255); fill-opacity: 0; fill-rule: nonzero; opacity: 1;" vector-effect="non-scaling-stroke"  transform=" translate(0, 0)" d="M -44.99856 20.71823 L -16.609489999999997 20.71823 L -16.609489999999997 20.71823 L -16.609489999999997 20.71823 C -5.143229999999997 20.71823 5.178940000000004 14.277749999999997 9.492250000000002 4.43215 L 11.298740000000002 0.30862999999999996 L 11.298740000000002 0.30862999999999996 C 16.867630000000002 -12.40297 30.194530000000004 -20.718239999999998 44.99855 -20.718239999999998 L 44.99855 -20.718239999999998" stroke-linecap="round" />
</g>
<g transform="matrix(1 0 0 1 259.77 209.73)" id="inc8I5HwWZ9Q1nWEemG_9"  >
<path style="stroke: rgb(64,123,232); stroke-width: 0; stroke-dasharray: none; stroke-linecap: butt; stroke-dashoffset: 0; stroke-linejoin: miter; stroke-miterlimit: 4; fill: rgb(64,123,232); fill-rule: nonzero; opacity: 1;" vector-effect="non-scaling-stroke"  transform=" translate(-15.94, -13.81)" d="M 31.88303 13.81215 L 0 27.6243 L 0.55686 26.032850000000003 C 2.48532 20.521510000000003 6.78619 16.16709 12.27324 14.170570000000003 L 13.258289999999999 13.812150000000003 z M 13.25967 13.81215 C 7.39356 10.85552 2.7148400000000006 5.9818500000000006 0 0 L 31.88635 13.81215 z" stroke-linecap="round" />
</g>
<g transform="matrix(1 0 0 1 259.77 175.43)" id="dOdA7HWCBcimhIMYekqwF"  >
<path style="stroke: rgb(0,0,0); stroke-width: 0; stroke-dasharray: none; stroke-linecap: butt; stroke-dashoffset: 0; stroke-linejoin: miter; stroke-miterlimit: 4; fill: rgb(0,0,0); fill-rule: nonzero; opacity: 1;" vector-effect="non-scaling-stroke"  transform=" translate(-15.94, -13.81)" d="M 31.88303 13.81215 L 0 27.6243 L 0.55686 26.032850000000003 C 2.48532 20.521510000000003 6.78619 16.16709 12.27324 14.170570000000003 L 13.258289999999999 13.812150000000003 z M 13.25967 13.81215 C 7.39356 10.85552 2.7148400000000006 5.9818500000000006 0 0 L 31.88635 13.81215 z" stroke-linecap="round" />
</g>
</svg>